HIERARCHY
ROOT Hips
{
	OFFSET 0.000000 0.000000 0.000000
	CHANNELS 6 Xposition Yposition Zposition Zrotation Yrotation Xrotation 
	JOINT LeftUpLeg_virtual
	{
		OFFSET 0.000000 0.000000 0.000000
		CHANNELS 3 Zrotation Yrotation Xrotation
		JOINT LeftUpLeg
		{
			OFFSET 8.479694 -4.795517 -0.379053
			CHANNELS 3 Zrotation Yrotation Xrotation
			JOINT LeftLeg
			{
				OFFSET 0.485052 -32.551468 0.112863
				CHANNELS 3 Zrotation Yrotation Xrotation
				JOINT LeftFoot
				{
					OFFSET 0.438033 -32.635670 -3.012641
					CHANNELS 3 Zrotation Yrotation Xrotation
					JOINT LeftToeBase
					{
						OFFSET 0.970169 -13.225353 11.864223
						CHANNELS 3 Zrotation Yrotation Xrotation
						End Site
						{
							OFFSET 0.000000 0.000000 0.000000
						}
					}
				}
			}
		}
	}
	JOINT RightUpLeg_virtual
	{
		OFFSET 0.000000 0.000000 0.000000
		CHANNELS 3 Zrotation Yrotation Xrotation
		JOINT RightUpLeg
		{
			OFFSET -8.479694 -4.795517 -0.379053
			CHANNELS 3 Zrotation Yrotation Xrotation
			JOINT RightLeg
			{
				OFFSET -0.484100 -32.551483 0.112903
				CHANNELS 3 Zrotation Yrotation Xrotation
				JOINT RightFoot
				{
					OFFSET -0.438985 -32.635651 -3.012681
					CHANNELS 3 Zrotation Yrotation Xrotation
					JOINT RightToeBase
					{
						OFFSET -0.970169 -13.225354 11.864223
						CHANNELS 3 Zrotation Yrotation Xrotation
						End Site
						{
							OFFSET 0.000000 0.000000 0.000000
						}
					}
				}
			}
		}
	}
	JOINT Spine_virtual
	{
		OFFSET 0.000000 0.000000 0.000000
		CHANNELS 3 Zrotation Yrotation Xrotation
		JOINT Spine
		{
			OFFSET 0.000000 7.722015 1.166203
			CHANNELS 3 Zrotation Yrotation Xrotation
			JOINT Spine1
			{
				OFFSET 0.000000 12.024086 0.248766
				CHANNELS 3 Zrotation Yrotation Xrotation
				JOINT Spine2
				{
					OFFSET -0.000000 11.503036 -0.491240
					CHANNELS 3 Zrotation Yrotation Xrotation
					JOINT Neck_virtual
					{
						OFFSET 0.000000 0.000000 0.000000
						CHANNELS 3 Zrotation Yrotation Xrotation
						JOINT Neck
						{
							OFFSET 0.000000 18.430687 -3.123054
							CHANNELS 3 Zrotation Yrotation Xrotation
							JOINT Head
							{
								OFFSET -0.000000 9.051071 1.034021
								CHANNELS 3 Zrotation Yrotation Xrotation
								End Site
								{
									OFFSET 0.000000 0.000000 0.000000
								}
							}
						}
					}
					JOINT LeftShoulder_virtual
					{
						OFFSET 0.000000 0.000000 0.000000
						CHANNELS 3 Zrotation Yrotation Xrotation
						JOINT LeftShoulder
						{
							OFFSET 6.197824 13.665230 -4.064723
							CHANNELS 3 Zrotation Yrotation Xrotation
							JOINT LeftArm
							{
								OFFSET 7.778132 -0.187073 -1.709282
								CHANNELS 3 Zrotation Yrotation Xrotation
								JOINT LeftForeArm
								{
									OFFSET 21.954697 0.000000 -2.041093
									CHANNELS 3 Zrotation Yrotation Xrotation
									JOINT LeftHand
									{
										OFFSET 22.992908 0.000000 -0.870901
										CHANNELS 3 Zrotation Yrotation Xrotation
										End Site
										{
											OFFSET 0.000000 0.000000 0.000000
										}
									}
								}
							}
						}
					}
					JOINT RightShoulder_virtual
					{
						OFFSET 0.000000 0.000000 0.000000
						CHANNELS 3 Zrotation Yrotation Xrotation
						JOINT RightShoulder
						{
							OFFSET -6.197824 13.665230 -4.064723
							CHANNELS 3 Zrotation Yrotation Xrotation
							JOINT RightArm
							{
								OFFSET -7.778132 -0.187073 -1.709282
								CHANNELS 3 Zrotation Yrotation Xrotation
								JOINT RightForeArm
								{
									OFFSET -21.954697 0.000000 -2.041093
									CHANNELS 3 Zrotation Yrotation Xrotation
									JOINT RightHand
									{
										OFFSET -22.992908 0.000000 -0.870901
										CHANNELS 3 Zrotation Yrotation Xrotation
										End Site
										{
											OFFSET 0.000000 0.000000 0.000000
										}
									}
								}
							}
						}
					}
				}
			}
		}
	}
}
MOTION
Frames: 11
Frame Time: 0.033333
33.486954 81.550812 -7.240394 -178.734972 -60.001545 178.776896 -7.102484 2.342662 9.684847 -1.216784 7.156303 -22.474792 8.073119 9.772536 31.061607 -0.118844 -7.992606 -8.968004 0.000000 0.000000 0.000000 -2.821216 -1.706933 9.919059 6.670496 -6.051236 -29.859422 -1.209834 1.125009 33.487649 8.753608 7.474980 -4.087831 0.000000 0.000000 0.000000 -2.896074 1.083232 -1.190530 1.638505 0.607152 -2.763867 -0.265992 -2.911748 9.710262 -0.111682 -0.572748 -0.061412 -0.305876 -1.942676 9.564591 -2.688877 4.313798 1.563686 0.000000 0.000000 0.000000 1.287410 -1.444513 6.868880 5.409358 1.947151 0.662731 -67.491271 -43.806477 18.431014 176.866874 -82.221810 -154.150553 0.000000 0.000000 0.000000 -3.177475 0.395672 5.354677 18.640618 -0.423742 2.537939 49.572215 17.955304 -14.596961 -148.425789 80.909834 -156.096419 0.000000 0.000000 0.000000 
32.686653 81.484283 -7.593249 -178.390594 -60.011231 178.546554 -6.764051 2.612121 9.701731 -1.271825 7.479625 -22.325486 8.151511 9.706594 31.995021 -0.099625 -8.551635 -9.412047 0.000000 0.000000 0.000000 -2.571092 -1.621459 9.881269 6.535726 -5.091072 -29.005549 -1.337546 0.733991 33.346042 8.404001 6.771759 -5.000749 0.000000 0.000000 0.000000 -2.314847 1.175396 -1.432942 1.749353 0.758416 -3.048271 -0.323274 -2.846611 9.689715 -0.052087 -0.445065 -0.014663 -0.283153 -1.802687 9.511484 -2.592731 4.418026 1.780002 0.000000 0.000000 0.000000 1.152231 -1.647544 6.890782 5.157486 1.546848 0.683644 -67.068257 -43.044631 18.566718 176.207652 -82.367170 -153.349222 0.000000 0.000000 0.000000 -3.211690 0.172482 5.322175 19.030273 -0.093440 2.535704 50.085248 19.690848 -12.896011 -155.299623 78.600219 -163.047872 0.000000 0.000000 0.000000 
31.922934 81.410683 -7.919617 -178.357836 -60.648166 178.507568 -6.479037 2.551518 9.857379 -1.335413 7.498174 -22.571463 8.204626 9.402658 33.393130 -0.156787 -9.145849 -9.505991 0.000000 0.000000 0.000000 -2.461571 -2.416655 9.867106 6.002241 -3.696940 -28.047410 -1.346869 0.706335 33.255938 8.154636 6.303237 -6.385806 0.000000 0.000000 0.000000 -1.923343 0.236563 -1.481345 1.870599 0.491838 -3.286666 -0.259413 -2.999216 9.690401 -0.071774 -0.304444 -0.020852 -0.459891 -2.107722 9.557158 -2.600417 4.586489 1.978106 0.000000 0.000000 0.000000 1.246593 -1.480408 6.633950 4.646373 1.404393 0.904568 -66.871063 -41.950120 18.797053 175.167045 -82.731664 -152.100854 0.000000 0.000000 0.000000 -3.191272 0.401372 5.464670 19.423832 0.757290 2.549120 50.330527 21.872412 -11.005788 -160.253054 76.837613 -168.098400 0.000000 0.000000 0.000000 
31.206686 81.364319 -8.207458 -177.840545 -60.770870 178.208774 -6.114006 2.599296 10.054794 -1.314923 7.558497 -23.375276 8.206864 9.085982 35.287298 -0.139373 -9.553036 -9.399791 0.000000 0.000000 0.000000 -2.067471 -2.790372 9.797515 5.474941 -2.470425 -27.277723 -1.346864 0.778619 33.176486 8.018320 5.974593 -7.456243 0.000000 0.000000 0.000000 -1.255199 0.530476 -1.571726 2.018739 1.059184 -3.546168 -0.223074 -2.960159 9.674548 -0.143081 -0.550312 -0.006198 -0.343891 -2.290726 9.557865 -2.120893 4.352956 2.224823 0.000000 0.000000 0.000000 1.179285 -1.690402 6.942963 4.545148 0.744954 0.617956 -66.855469 -41.384567 19.539245 175.865541 -83.204395 -152.544489 0.000000 0.000000 0.000000 -3.156213 -0.119287 5.217382 20.021359 1.437318 2.627573 50.350468 23.963871 -8.001521 -162.690325 75.559050 -170.476153 0.000000 0.000000 0.000000 
30.565367 81.355766 -8.466425 -178.237024 -60.004496 178.611182 -5.770931 1.854524 10.461560 -1.017652 6.873081 -24.475086 7.846782 7.898042 37.783158 -1.134037 -11.114553 -9.133994 0.000000 0.000000 0.000000 -1.870077 -2.894913 9.700387 4.779295 -1.264881 -26.615033 -1.313051 1.023548 33.119307 8.016910 5.835776 -8.254283 0.000000 0.000000 0.000000 -0.912629 0.316984 -1.504474 1.994987 1.511251 -3.734415 -0.232575 -2.779564 9.644116 -0.099738 -0.373088 0.019727 -0.416950 -2.211538 9.581974 -2.021194 4.486933 2.355619 0.000000 0.000000 0.000000 1.226212 -1.664591 6.759728 4.112168 0.287896 0.845203 -66.694304 -40.679295 20.267284 174.830877 -83.629260 -151.208230 0.000000 0.000000 0.000000 -3.276277 0.167308 5.195777 20.260634 2.757309 2.843274 50.105134 26.452090 -4.185216 -164.589650 74.625575 -172.153825 0.000000 0.000000 0.000000 
29.966612 81.380310 -8.685607 -178.212422 -59.325295 178.707542 -5.391453 0.892991 10.784288 -0.494921 5.954646 -25.951454 7.269901 6.546410 40.609054 -2.398311 -12.815104 -8.138494 0.000000 0.000000 0.000000 -1.503496 -3.154562 9.650963 4.110877 -0.345702 -26.167305 -1.275911 1.238407 32.996258 8.057511 5.785258 -8.770892 0.000000 0.000000 0.000000 -0.482736 -0.060139 -1.441957 1.967925 1.918970 -3.858703 -0.274727 -2.621268 9.625389 -0.116408 -0.249935 0.017843 -0.347018 -1.967621 9.604569 -1.648666 4.389354 2.372294 0.000000 0.000000 0.000000 1.105970 -1.398165 6.740385 4.071016 -0.149832 0.863662 -66.945942 -40.372859 21.240567 174.639222 -83.952498 -150.727850 0.000000 0.000000 0.000000 -3.244062 0.333439 5.382070 20.117316 4.222309 2.728369 49.655332 29.243018 0.166126 -167.279147 74.130174 -174.486813 0.000000 0.000000 0.000000 
29.348433 81.436974 -8.863931 -178.937241 -58.113087 179.244354 -5.059188 -0.181077 11.123930 0.117145 5.091658 -27.439003 6.649809 5.500872 43.868748 -3.465388 -13.895174 -5.893323 0.000000 0.000000 0.000000 -1.335905 -3.211559 9.615434 3.295927 0.711817 -25.720493 -1.208077 1.707890 33.100630 8.289583 5.933303 -9.095035 0.000000 0.000000 0.000000 -0.335427 -0.357401 -1.318954 1.731028 2.384626 -3.857190 -0.340978 -2.371757 9.683951 -0.041281 -0.047878 0.060537 -0.430790 -1.747322 9.630697 -1.471641 4.349085 2.493958 0.000000 0.000000 0.000000 1.085901 -1.209727 6.547847 3.755217 -0.560263 0.980849 -66.937001 -39.999241 22.163667 172.677646 -84.085400 -148.447441 0.000000 0.000000 0.000000 -3.338774 0.649344 5.347122 19.527750 5.715011 2.753051 48.918027 32.134886 4.164595 -169.764284 74.041730 -176.591112 0.000000 0.000000 0.000000 
28.715353 81.501701 -9.021029 -179.635369 -57.246110 179.603977 -4.553637 -1.336868 11.161547 1.112876 4.096901 -29.165352 5.745394 4.269644 47.468780 -4.746866 -15.011096 -3.735500 0.000000 0.000000 0.000000 -1.237273 -3.631878 9.627291 2.451191 1.691390 -25.230550 -1.092382 2.221107 33.370549 8.469816 6.051653 -9.355612 0.000000 0.000000 0.000000 -0.202712 -0.738157 -1.141807 1.363112 2.704667 -3.717184 -0.466459 -2.188421 9.720326 -0.020147 0.057547 -0.013055 -0.368658 -1.319641 9.695730 -1.171082 4.573513 2.608791 0.000000 0.000000 0.000000 1.014750 -1.059825 6.552945 3.468320 -0.940443 0.938506 -66.912706 -39.525198 22.611162 173.566049 -84.296173 -149.023376 0.000000 0.000000 0.000000 -3.292348 0.825179 5.379784 18.776665 6.822396 2.704140 48.011913 34.475913 7.419524 -171.230206 74.034756 -177.699543 0.000000 0.000000 0.000000 
28.052231 81.528671 -9.138862 -179.930542 -56.618119 179.801943 -4.089866 -2.129390 11.000638 2.650122 3.102944 -30.886061 5.006311 3.185883 50.017981 -4.894415 -14.943829 -2.849728 0.000000 0.000000 0.000000 -1.011135 -4.119363 9.572169 1.658802 2.236049 -24.786307 -1.025124 2.547359 33.472373 8.687091 6.269065 -9.757995 0.000000 0.000000 0.000000 -0.033670 -1.143927 -1.127637 0.976897 2.808352 -3.690094 -0.505714 -2.150945 9.864475 0.008085 0.025207 -0.046119 -0.419757 -1.237001 9.651935 -0.989205 4.834372 2.751230 0.000000 0.000000 0.000000 1.011648 -0.942161 6.383554 3.186581 -1.211999 0.997918 -66.478381 -38.689723 22.787371 173.498635 -84.339845 -148.656444 0.000000 0.000000 0.000000 -3.278845 0.954415 5.343930 17.889158 7.631942 2.372342 47.174334 36.055841 9.369259 -172.739487 74.350052 -178.961584 0.000000 0.000000 0.000000 
27.327177 81.515823 -9.218883 -179.939940 -56.026549 179.688193 -3.872561 -2.375654 10.930069 4.288780 2.433846 -32.121280 5.372308 3.075952 50.697677 -2.758572 -12.522950 -3.997711 0.000000 0.000000 0.000000 -0.721996 -4.533335 9.570947 0.929644 2.951762 -24.316923 -0.911786 2.854228 33.699576 8.867981 6.480846 -10.230063 0.000000 0.000000 0.000000 0.107460 -1.387355 -1.099675 0.551613 2.863175 -3.583186 -0.493972 -2.059840 9.947581 0.008672 0.053285 -0.046986 -0.396112 -1.244221 9.562317 -0.739128 5.000586 2.776349 0.000000 0.000000 0.000000 1.025932 -0.952222 6.293414 3.046392 -1.461425 0.982047 -65.547843 -37.694923 22.458196 174.913631 -84.387377 -149.824243 0.000000 0.000000 0.000000 -3.285515 0.955445 5.203787 17.099228 7.816571 2.186383 46.235757 36.817790 9.970191 -172.704256 74.841852 -178.795460 0.000000 0.000000 0.000000 
26.496576 81.470802 -9.205841 -179.788611 -55.150649 179.682019 -3.583643 -2.596850 10.748037 6.053930 1.808194 -32.859794 5.281031 2.701903 49.202422 -1.473186 -10.810109 -4.488683 0.000000 0.000000 0.000000 -0.498904 -4.814231 9.484594 0.171944 3.799746 -24.068677 -0.786749 3.231916 33.941085 8.986564 6.644032 -10.729910 0.000000 0.000000 0.000000 0.279334 -1.570195 -1.204695 0.111045 2.833626 -3.566186 -0.490487 -1.980462 9.910683 -0.013667 0.062737 -0.052810 -0.377969 -1.192150 9.544352 -0.618847 5.306818 2.666977 0.000000 0.000000 0.000000 1.053626 -0.907457 6.251459 3.045493 -1.617006 1.092279 -64.117595 -36.528412 21.705547 175.659147 -84.414718 -150.465488 0.000000 0.000000 0.000000 -3.245448 0.955798 5.187845 16.435879 7.672255 2.039219 45.221149 36.952440 9.197268 -172.840601 75.473058 -178.893624 0.000000 0.000000 0.000000 
